<?xml version="1.0" encoding="UTF-8"?>
<svg xmlns="http://www.w3.org/2000/svg" viewBox="0 0 1200 600" width="1200" height="600" preserveAspectRatio="xMidYMid slice" aria-hidden="true">
  <g fill="none" stroke="#5b8a8a" stroke-width="1">
    <path d="M0 40 C 200 70, 400 10, 600 50 S 1000 80, 1200 30"/>
    <path d="M0 70 C 220 100, 420 40, 620 80 S 1020 110, 1200 60"/>
    <path d="M0 100 C 200 130, 400 70, 600 110 S 1000 140, 1200 90"/>
    <path d="M0 130 C 240 160, 440 100, 640 140 S 1040 170, 1200 120"/>
    <path d="M0 160 C 200 190, 400 130, 600 170 S 1000 200, 1200 150"/>
    <path d="M0 190 C 220 220, 420 160, 620 200 S 1020 230, 1200 180"/>
    <path d="M0 220 C 200 250, 400 190, 600 230 S 1000 260, 1200 210"/>
    <path d="M0 250 C 240 280, 440 220, 640 260 S 1040 290, 1200 240"/>
    <path d="M0 280 C 200 310, 400 250, 600 290 S 1000 320, 1200 270"/>
    <path d="M0 310 C 220 340, 420 280, 620 320 S 1020 350, 1200 300"/>
    <path d="M0 340 C 200 370, 400 310, 600 350 S 1000 380, 1200 330"/>
    <path d="M0 370 C 240 400, 440 340, 640 380 S 1040 410, 1200 360"/>
    <path d="M0 400 C 200 430, 400 370, 600 410 S 1000 440, 1200 390"/>
    <path d="M0 430 C 220 460, 420 400, 620 440 S 1020 470, 1200 420"/>
    <path d="M0 460 C 200 490, 400 430, 600 470 S 1000 500, 1200 450"/>
    <path d="M0 490 C 240 520, 440 460, 640 500 S 1040 530, 1200 480"/>
    <path d="M0 520 C 200 550, 400 490, 600 530 S 1000 560, 1200 510"/>
    <path d="M0 550 C 220 580, 420 520, 620 560 S 1020 590, 1200 540"/>
    <path d="M0 580 C 200 610, 400 550, 600 590 S 1000 620, 1200 570"/>
    <path d="M0 25 C 180 55, 380 -5, 580 35 S 980 65, 1200 15"/>
    <path d="M0 55 C 240 85, 440 25, 640 65 S 1040 95, 1200 45"/>
    <path d="M0 85 C 200 115, 400 55, 600 95 S 1000 125, 1200 75"/>
    <path d="M0 115 C 220 145, 420 85, 620 125 S 1020 155, 1200 105"/>
    <path d="M0 205 C 220 235, 420 175, 620 215 S 1020 245, 1200 195"/>
    <path d="M0 295 C 220 325, 420 265, 620 305 S 1020 335, 1200 285"/>
  </g>
</svg>
